<svg xmlns="http://www.w3.org/2000/svg" xmlns:xlink="http://www.w3.org/1999/xlink" width="35.176" height="22.223" viewBox="0 0 35.176 22.223">
  <defs>
    <clipPath id="clip-path">
      <rect id="Rectangle_4" data-name="Rectangle 4" width="35.176" height="22.223"/>
    </clipPath>
  </defs>
  <g id="Group_4" data-name="Group 4" transform="translate(35.176 22.223) rotate(180)">
    <g id="Group_3" data-name="Group 3" transform="translate(0 0)" clip-path="url(#clip-path)">
      <path id="Path_2" data-name="Path 2" d="M34.886,10.528,21.949.193a.86.86,0,0,0-1.408.583V6.322a.815.815,0,0,1-.849.775H.849A.815.815,0,0,0,0,7.873v6.478a.815.815,0,0,0,.849.775H19.692a.815.815,0,0,1,.849.775v5.545a.86.86,0,0,0,1.408.583L34.886,11.7a.732.732,0,0,0,0-1.167" transform="translate(0 0)"/>
    </g>
  </g>
</svg>
