<svg id="Group_43" data-name="Group 43" xmlns="http://www.w3.org/2000/svg" xmlns:xlink="http://www.w3.org/1999/xlink" width="18.292" height="17.754" viewBox="0 0 18.292 17.754">
  <defs>
    <clipPath id="clip-path">
      <rect id="Rectangle_5" data-name="Rectangle 5" width="18.292" height="17.754"/>
    </clipPath>
  </defs>
  <g id="Group_5" data-name="Group 5" clip-path="url(#clip-path)">
    <path id="Path_3" data-name="Path 3" d="M146.548,2.645h6.085a.636.636,0,0,0,.661-.607V.608A.636.636,0,0,0,152.633,0h-6.085a.635.635,0,0,0-.661.607V2.038a.636.636,0,0,0,.661.607" transform="translate(-140.431 -0.001)"/>
    <path id="Path_4" data-name="Path 4" d="M17.675,22.991H16.487V17.348a2.979,2.979,0,0,0-1.72-2.644.458.458,0,0,0-.67.375v6.911c0,2.738-2.263,3.872-4.938,3.872s-4.938-1.133-4.938-3.872V15.079a.458.458,0,0,0-.669-.375,2.978,2.978,0,0,0-1.72,2.644v5.644H.617A.594.594,0,0,0,0,23.558v1.648a1.5,1.5,0,0,0,1.557,1.429h.275v1.252A2.192,2.192,0,0,0,3.6,29.97v1.282a.683.683,0,0,0,.71.652H6.186a.683.683,0,0,0,.71-.652V30.034h4.938v1.085a.653.653,0,0,0,.679.623h1.934a.653.653,0,0,0,.679-.623V29.837a2.145,2.145,0,0,0,1.361-1.95V26.635h.249a1.5,1.5,0,0,0,1.557-1.429V23.558a.594.594,0,0,0-.617-.567M6.731,28.73H4.26a.574.574,0,0,1-.6-.548V27.6a.574.574,0,0,1,.6-.548H6.092a1.188,1.188,0,0,1,1.235,1.134.574.574,0,0,1-.6.548m7.924-.548a.574.574,0,0,1-.6.548h-2.47a.574.574,0,0,1-.6-.548,1.188,1.188,0,0,1,1.235-1.134h1.832a.574.574,0,0,1,.6.548Z" transform="translate(0 -14.151)"/>
  </g>
</svg>
