<svg id="Group_7" data-name="Group 7" xmlns="http://www.w3.org/2000/svg" xmlns:xlink="http://www.w3.org/1999/xlink" width="33.114" height="27.992" viewBox="0 0 33.114 27.992">
  <defs>
    <clipPath id="clip-path">
      <rect id="Rectangle_6" data-name="Rectangle 6" width="33.114" height="27.992"/>
    </clipPath>
  </defs>
  <g id="Group_6" data-name="Group 6" clip-path="url(#clip-path)">
    <path id="Path_5" data-name="Path 5" d="M29.7,10.663l.316-.1h1.313a1.011,1.011,0,0,0,.947-1.063V8.365A1.011,1.011,0,0,0,31.329,7.3H29.347L28.215,2.994q-.01-.039-.022-.077A4.476,4.476,0,0,0,23.788,0H9.327a4.476,4.476,0,0,0-4.4,2.917c-.008.025-.016.051-.022.077L3.768,7.3H1.852A1.011,1.011,0,0,0,.9,8.365V9.494a1.011,1.011,0,0,0,.947,1.063H3.1l.316.1A6.84,6.84,0,0,0,0,16.742v3.279A3.067,3.067,0,0,0,2.414,23.15v3.493a1.282,1.282,0,0,0,1.2,1.349H6.925a1.282,1.282,0,0,0,1.2-1.349V23.183H25.054v3.461a1.282,1.282,0,0,0,1.2,1.349h3.309a1.282,1.282,0,0,0,1.2-1.349v-3.5a3.078,3.078,0,0,0,2.347-3.117V16.742A6.84,6.84,0,0,0,29.7,10.663M7.346,3.859a2.129,2.129,0,0,1,1.98-.979H23.788a2.129,2.129,0,0,1,1.98.979l1.617,6.155c-.09,0-.18-.007-.27-.007H6c-.091,0-.181,0-.27.007ZM9.729,17.395a.953.953,0,0,1-.894,1H4.2a.953.953,0,0,1-.894-1v-1.6a.953.953,0,0,1,.894-1H8.835a.953.953,0,0,1,.894,1Zm10.179.913h-6.7a.856.856,0,0,1,0-1.7h6.7a.856.856,0,0,1,0,1.7m3.477-.913v-1.6a.953.953,0,0,1,.894-1h4.639a.953.953,0,0,1,.894,1v1.6a.953.953,0,0,1-.894,1H24.279a.953.953,0,0,1-.894-1"/>
  </g>
</svg>
