<svg id="Group_45" data-name="Group 45" xmlns="http://www.w3.org/2000/svg" xmlns:xlink="http://www.w3.org/1999/xlink" width="17.198" height="17.771" viewBox="0 0 17.198 17.771">
  <defs>
    <clipPath id="clip-path">
      <rect id="Rectangle_2" data-name="Rectangle 2" width="17.198" height="17.771"/>
    </clipPath>
  </defs>
  <g id="Group_1" data-name="Group 1" clip-path="url(#clip-path)">
    <path id="Path_1" data-name="Path 1" d="M16.618,3.44h-1.14V1.873A1.873,1.873,0,0,0,13.6,0H3.593A1.873,1.873,0,0,0,1.72,1.873V3.44H.579A.579.579,0,0,0,0,4.019V5.7A1.462,1.462,0,0,0,1.462,7.166H1.72v7.012A1.873,1.873,0,0,0,3.38,16.039V17.1a.668.668,0,0,0,.668.668H5.579a.668.668,0,0,0,.668-.668V16.051h4.74V17.1a.668.668,0,0,0,.668.668h1.531a.668.668,0,0,0,.668-.668V16.035a1.873,1.873,0,0,0,1.625-1.856V7.166h.258A1.462,1.462,0,0,0,17.2,5.7V4.019a.579.579,0,0,0-.579-.579M4.873,1.138h7.452a.439.439,0,0,1,0,.878H4.873a.439.439,0,0,1,0-.878M6.319,14.332H4a.56.56,0,0,1-.56-.56v-.6a.56.56,0,0,1,.56-.56H5.72a1.16,1.16,0,0,1,1.159,1.16.56.56,0,0,1-.56.56m4-.56a1.16,1.16,0,0,1,1.159-1.16H13.2a.56.56,0,0,1,.56.56v.6a.56.56,0,0,1-.56.56H10.879a.56.56,0,0,1-.56-.56m4.075-3.863a1.155,1.155,0,0,1-1.258,1.011,39.867,39.867,0,0,1-9.074,0A1.155,1.155,0,0,1,2.8,9.908V4.164A1.155,1.155,0,0,1,4.062,3.153h9.074a1.155,1.155,0,0,1,1.258,1.011Z"/>
  </g>
</svg>
