<svg version="1.2" xmlns="http://www.w3.org/2000/svg" viewBox="0 0 23 36" width="23" height="36">
	<title>New Project</title>
	<style>
		.s0 { fill: #000000 } 
	</style>
	<path id="Path_2" class="s0" d="m12.2 35.4l10.1-13.1q0.2-0.2 0.2-0.4 0.1-0.3 0-0.5-0.1-0.2-0.3-0.4-0.2-0.1-0.5-0.1l-5.5 0.1q-0.2 0-0.3-0.1-0.2-0.1-0.3-0.2-0.1-0.1-0.1-0.3-0.1-0.1-0.1-0.3l-0.2-18.8q0-0.2-0.1-0.3 0-0.2-0.2-0.3-0.1-0.1-0.2-0.2-0.2-0.1-0.3-0.1l-6.5 0.1q-0.2 0-0.3 0.1-0.1 0.1-0.3 0.2-0.1 0.1-0.1 0.3-0.1 0.1-0.1 0.3l0.3 18.8q0 0.2-0.1 0.3 0 0.2-0.1 0.3-0.1 0.1-0.3 0.2-0.1 0.1-0.3 0.1l-5.5 0.1q-0.3 0-0.5 0.1-0.1 0.2-0.2 0.4-0.1 0.2-0.1 0.5 0.1 0.2 0.2 0.4l10.5 12.8q0.1 0.1 0.3 0.2 0.1 0.1 0.3 0.1 0.2 0 0.3-0.1 0.2-0.1 0.3-0.2z"/>
</svg>