<svg id="Group_58" data-name="Group 58" xmlns="http://www.w3.org/2000/svg" xmlns:xlink="http://www.w3.org/1999/xlink" width="104.644" height="100.509" viewBox="0 0 104.644 100.509">
  <defs>
    <clipPath id="clip-path">
      <path id="Path_16" data-name="Path 16" d="M8.974,50.051v50.458H97.327V50.051C97.327,22.409,77.55,0,53.15,0S8.974,22.409,8.974,50.051" transform="translate(-8.974)" fill="none"/>
    </clipPath>
    <radialGradient id="radial-gradient" cx="0.5" cy="0.485" r="0.451" gradientUnits="objectBoundingBox">
      <stop offset="0" stop-color="#006eaa"/>
      <stop offset="0.31" stop-color="#064b8b"/>
      <stop offset="0.686" stop-color="#0c276b"/>
      <stop offset="0.886" stop-color="#0f1a5f"/>
      <stop offset="1" stop-color="#0f1a5f"/>
    </radialGradient>
    <clipPath id="clip-path-2">
      <rect id="Rectangle_14" data-name="Rectangle 14" width="104.644" height="100.509" fill="none"/>
    </clipPath>
    <clipPath id="clip-path-3">
      <path id="Path_51" data-name="Path 51" d="M63.849,52.19a1.48,1.48,0,0,0-.1.131,1.723,1.723,0,0,0-.208.386,1.656,1.656,0,0,0-.062.182,2.6,2.6,0,0,0-.082.415,4.132,4.132,0,0,0,0,.92.684.684,0,0,0-.38-.406L63,53.809a.428.428,0,0,0-.046-.016l-.022-.008-.038-.011a.571.571,0,0,0-.06-.012l-.018,0H62.8a3.1,3.1,0,0,1,.1.357c.227,1.075-.453,1.511-.453,2.609a2.18,2.18,0,0,0,.614,1.576l.031.033c.043.041.084.079.126.115.01.01.023.018.032.027.042.034.082.065.122.093a1.781,1.781,0,0,0,.168.109l.048.028a1.923,1.923,0,0,0,.213.1,3.483,3.483,0,0,1-.248-.533c-.019-.055-.036-.106-.049-.157a1.663,1.663,0,0,1-.069-.488,1,1,0,0,1,.006-.122,1.458,1.458,0,0,1,.057-.281,1.966,1.966,0,0,1,.08-.2.464.464,0,0,0,.024-.05c.018-.03.035-.062.052-.093.053-.092.112-.18.171-.267l.092-.129.088-.127c.039-.058.075-.115.111-.174.018-.029.035-.059.05-.089s.03-.061.045-.091.012-.032.02-.047a1.2,1.2,0,0,0,.08-.3,1.268,1.268,0,0,0-.034-.472,1.187,1.187,0,0,1,.45.8.573.573,0,0,1,0,.071v.034c0,.058-.013.114-.023.168-.007.032-.016.065-.024.1-.1.347-.3.626-.124.852a.156.156,0,0,0,.132.075c.118-.008.237-.184.33-.365.013-.028.027-.055.04-.082s.024-.054.035-.079c.029-.065.051-.122.067-.165.01-.024.017-.043.021-.055l0-.012a1.887,1.887,0,0,1,.258.78c0,.07.007.138,0,.2a1.4,1.4,0,0,1-.018.194c0,.032-.01.062-.014.093s-.014.06-.022.089a1.818,1.818,0,0,1-.1.289c0,.012-.01.024-.014.036-.017.037-.033.072-.051.108-.007.011-.012.023-.018.033s-.024.043-.036.064c-.035.063-.071.119-.1.167a.423.423,0,0,1-.032.046l-.03.042-.027.036c-.053.068-.089.1-.089.1a3,3,0,0,0,.972-.628c.043-.044.083-.088.121-.134.019-.022.038-.045.056-.069a2.059,2.059,0,0,0,.422-1.148c0-.028,0-.055,0-.082a3.754,3.754,0,0,0-.516-1.862c-.026-.05-.057-.1-.085-.149s-.058-.1-.089-.144-.061-.094-.091-.139l-.1-.135c-.049-.067-.1-.129-.148-.192l-.145-.183a3.62,3.62,0,0,1-.718-1.2c-.008-.023-.013-.047-.019-.071a1.742,1.742,0,0,1-.037-.521,2.909,2.909,0,0,1,.093-.521,2.245,2.245,0,0,0-.777.556" transform="translate(-62.45 -51.634)" fill="none"/>
    </clipPath>
    <linearGradient id="linear-gradient" x1="-15.125" y1="6.96" x2="-14.883" y2="6.96" gradientUnits="objectBoundingBox">
      <stop offset="0" stop-color="#f8ba17"/>
      <stop offset="0.314" stop-color="#f4891c"/>
      <stop offset="0.615" stop-color="#f16220"/>
      <stop offset="0.853" stop-color="#ef4923"/>
      <stop offset="1" stop-color="#ef4124"/>
    </linearGradient>
  </defs>
  <g id="Group_51" data-name="Group 51" transform="translate(8.79)">
    <g id="Group_50" data-name="Group 50" clip-path="url(#clip-path)">
      <rect id="Rectangle_13" data-name="Rectangle 13" width="88.353" height="100.509" transform="translate(0 0)" fill="url(#radial-gradient)"/>
    </g>
  </g>
  <path id="Path_17" data-name="Path 17" d="M0,62.566,3.564,69.5,0,76.44H9.008V62.566Z" transform="translate(0 -1.283)" fill="#faa21b"/>
  <path id="Path_18" data-name="Path 18" d="M99.241,62.566V76.44h7.436L103.839,69.5l2.839-6.938Z" transform="translate(-2.035 -1.283)" fill="#ef4124"/>
  <g id="Group_53" data-name="Group 53" transform="translate(0 0)">
    <g id="Group_52" data-name="Group 52" clip-path="url(#clip-path-2)">
      <path id="Path_19" data-name="Path 19" d="M5.482,68.046c.029,2.552.722,4.325.633,8.507s-.486,4.25-.456,6.8a139.848,139.848,0,0,0,33.4,7.655q-.09-7.631-.181-15.264a139.921,139.921,0,0,1-33.39-7.7" transform="translate(-0.112 -1.395)" fill="#fdb714"/>
      <path id="Path_20" data-name="Path 20" d="M39.443,75.886q.084,7.631.168,15.263A136.938,136.938,0,0,0,70.822,90.8l-.167-15.224a137,137,0,0,1-31.212.315" transform="translate(-0.809 -1.549)" fill="#f58220"/>
      <path id="Path_21" data-name="Path 21" d="M70.911,75.466l.167,15.225a140.188,140.188,0,0,0,30.736-7.4c-.03-2.835-.748-4.084-.657-8.5s.519-4.455.495-6.682a140.159,140.159,0,0,1-30.741,7.361" transform="translate(-1.454 -1.396)" fill="#f15f22"/>
      <path id="Path_22" data-name="Path 22" d="M8.557,76.693l.1-1.24a33.609,33.609,0,0,0,4.424,1.5v4.688q-.554-.135-1.107-.276-.013-1.731-.024-3.463a27.842,27.842,0,0,1-3.393-1.21m.319,1.32q.557.151,1.115.3v2.4q-.56-.151-1.122-.308,0-1.2.007-2.393m6.58.852a11.109,11.109,0,0,0-.126,3.4q-.561-.128-1.122-.262a10.393,10.393,0,0,1,.157-3.506c-.245-.083-.472-.171-.66-.249q.051-.62.107-1.241a37.752,37.752,0,0,0,4.678,1.4v4.673q-.557-.115-1.112-.233-.015-1.726-.026-3.454c-.595-.152-1.265-.335-1.9-.537m4.313,1.007c-.26-.1-.513-.21-.715-.3.048-.4.1-.808.145-1.214.52.206,1.236.484,1.775.661-.247,1.865-.146,3.5,1.219,3.807.984.215,1.348-.655,1.258-2.063a14.16,14.16,0,0,1-1.569-.52l.153-1.214a20.531,20.531,0,0,0,2.524.744c.242,3.391-.478,4.751-2.48,4.323-1.924-.412-2.48-2.387-2.31-4.228m5.439,1.063c.031-.414.064-.831.1-1.246a35.061,35.061,0,0,0,3.782.894l.032,3.351.581.041q.022.636.046,1.272-2.251-.165-4.492-.4-.032-.639-.064-1.277,1.394.148,2.793.27c-.014-.739-.025-1.475-.039-2.213a22.8,22.8,0,0,1-2.734-.693m4.9.877q.047-.623.1-1.248a34.656,34.656,0,0,0,3.794.76q.016,1.675.032,3.35l.583.022q.022.635.045,1.27-2.255-.085-4.5-.243c-.023-.425-.043-.85-.065-1.275q1.4.1,2.8.172l-.038-2.212a22.077,22.077,0,0,1-2.744-.6m5.7,1.03q-.608-.231-1.218-.466l.25-1.2q1.053.4,2.109.786V86.39c-.376-.026-.751-.054-1.128-.084q-.006-1.731-.013-3.464m4.055.278q.051-.632.1-1.263a30.9,30.9,0,0,0,4.53.486v4.688q-.566-.009-1.132-.024-.01-1.728-.024-3.457a25.207,25.207,0,0,1-3.477-.431m.328,1.247q.572.024,1.143.042v2.4l-1.15-.05q0-1.2.007-2.395m6.731-.655a11.128,11.128,0,0,0-.128,3.435c-.383,0-.764,0-1.145-.006a10.517,10.517,0,0,1,.16-3.542c-.251-.027-.482-.063-.675-.1.036-.423.072-.844.11-1.266a35.041,35.041,0,0,0,4.767.337v4.672c-.377.009-.755.016-1.132.022q-.013-1.725-.025-3.449c-.605-.017-1.287-.047-1.931-.106m9.113,3.451q-1.538.134-3.077.234-.026-.627-.052-1.257.992-.063,1.983-.142c-.013-1.429-.385-2.254-1.2-2.248-.973.006-1.519,1.125-1.829,3.637-.361-.055-.725-.111-1.087-.168a10.721,10.721,0,0,1,.752-3.093q-.492-.357-.984-.719c.207-.356.411-.711.618-1.067q.5.394,1,.784a2,2,0,0,1,1.5-.685c1.571-.011,2.5,1.265,2.375,4.724m.933-3.433c-.31-.03-.618-.07-.8-.1l.135-1.252c.559.056,1.171.131,1.686.167q.175,1.716.348,3.434c1.911.048,2.991-.614,3.138-2.46-.258-.008-.533-.023-.752-.042l.129-1.257q.926.066,1.775.053c.121,4.321-1.948,5.152-5.256,4.989q-.2-1.769-.4-3.537m1.936-1.406c.417.016.836.03,1.255.041-.013.755-.052,1.637-.117,2.449-.384.08-.767.159-1.152.235.02-.927.014-2.019.014-2.725m4.288.919.1-1.272a32.876,32.876,0,0,0,3.808-.13l.032,3.342.584-.116c.015.42.029.838.045,1.259q-2.26.445-4.521.817-.031-.63-.065-1.26,1.409-.229,2.814-.487l-.038-2.2a20.855,20.855,0,0,1-2.756.051m7.138-.63.1-1.286a30.364,30.364,0,0,0,4.513-.49v4.689l-1.125.22q-.013-1.726-.026-3.452a24.9,24.9,0,0,1-3.464.318m.327,1.175q.57-.1,1.14-.2v2.4q-.573.1-1.147.2,0-1.2.007-2.4m8.144-2.35a28.309,28.309,0,0,1-3.173.42q-.018-1.162-.037-2.326c.379-.074.758-.152,1.136-.229q.01.585.02,1.168c.875-.093,2.329-.335,3.277-.546.14,2.646-.5,4.511-3,5.444l-.273-1.146A2.815,2.815,0,0,0,78.8,81.439m2.942-.579q-.63-.038-1.26-.082.126-.646.255-1.291,1.123.069,2.245.12a6.866,6.866,0,0,1-.853,3.363q-.457-.191-.916-.384a4.088,4.088,0,0,0,.529-1.726m2.375-.625c-.215.032-.431.057-.628.077l.109-1.288a28.023,28.023,0,0,0,4.309-.836c.4,3.395.172,4.91-2.4,5.487a8.865,8.865,0,0,1-2.12.209q.087-.641.171-1.279a7.75,7.75,0,0,0,1.961-.213c1.389-.346,1.5-1.172,1.33-2.676-.544.134-1.115.256-1.666.353a5.207,5.207,0,0,0-.006,1.438q-.594.194-1.186.382a4.275,4.275,0,0,1,.125-1.654m6.373-1.487a6.208,6.208,0,0,0,.227,3.079q-.99.63-1.983,1.245-.135-.58-.271-1.162l.941-.584a4.45,4.45,0,0,1,.007-2.342c-.31.058-.6.111-.853.145q.057-.651.114-1.3a36.481,36.481,0,0,0,4.764-1.16q.012,2.333.024,4.665c-.369.126-.741.25-1.112.372l-.032-3.438c-.478.138-1.146.326-1.827.481m3.644-1.26c.031-.431.063-.861.094-1.293a34.014,34.014,0,0,0,3.714-.973l.032,3.334.568-.244q.022.624.043,1.25-2.2.945-4.408,1.815-.032-.621-.064-1.245,1.377-.541,2.747-1.109-.019-1.1-.037-2.2a21.473,21.473,0,0,1-2.69.659" transform="translate(-0.175 -1.542)" fill="#202d60"/>
      <path id="Path_23" data-name="Path 23" d="M54.313,13.078h-2.28c-.5.044-.834.355-.778.754v.044l.056.444L52.2,20.4h.057c0,.354.444.664.887.619h2.334a.812.812,0,0,0,.889-.619l.945-6.079.055-.444v-.044a.8.8,0,0,0-.777-.754H54.313Z" transform="translate(-1.051 -0.268)" fill="#3fa3db"/>
      <path id="Path_24" data-name="Path 24" d="M28.128,38.845l-5.265-2.412H22.8a1.041,1.041,0,0,0-1.335.6c-.063.267-.126.536-.189.736-.126.268-.191.6-.317.938-.063.337-.189.671-.254.938-.064.335-.19.67-.253,1s-.127.67-.191.939l-.064.335-.064.335c-.064.067-.064.067-.064.133a1.1,1.1,0,0,0,.888,1.206l5.646.872a1.107,1.107,0,0,0,1.207-.872l.063-.335A3.122,3.122,0,0,1,28,42.6a5.686,5.686,0,0,1,.191-.737c.064-.2.126-.4.19-.67.064-.2.126-.47.19-.738l.126-.2a1.14,1.14,0,0,0-.57-1.408" transform="translate(-0.411 -0.746)" fill="#3fa3db"/>
      <path id="Path_25" data-name="Path 25" d="M31.676,32.11l-4.569-3.751v-.067a1.041,1.041,0,0,0-1.457.267l-.127.27-.063.066-.19.268c-.192.266-.319.535-.508.8-.191.335-.382.6-.508.871s-.255.537-.444.871-.316.6-.444.8v.068l-.19.335-.126.269a.208.208,0,0,1-.064.132,1.139,1.139,0,0,0,.57,1.408l5.265,2.411a1.03,1.03,0,0,0,1.333-.534l.127-.268a6.242,6.242,0,0,1,.316-.671c.064-.135.191-.335.317-.6h.064a6.264,6.264,0,0,1,.317-.669c.126-.2.254-.334.381-.535l.19-.337a1.081,1.081,0,0,0-.19-1.407" transform="translate(-0.47 -0.576)" fill="#3fa3db"/>
      <path id="Path_26" data-name="Path 26" d="M36.725,26.544,33.3,21.721a.064.064,0,0,1-.064-.067.982.982,0,0,0-1.458-.134l-.255.2v.067l-.254.2c-.19.2-.444.4-.634.6l-.063.067c-.254.2-.444.47-.7.671a6.021,6.021,0,0,1-.635.671l-.063.067c-.127.133-.317.4-.57.67l-.065.067-.253.267-.19.267-.064.066a1.111,1.111,0,0,0,.19,1.476l4.441,3.684a.979.979,0,0,0,1.459-.067l.19-.2a3.836,3.836,0,0,1,.508-.535c.126-.2.316-.335.444-.536a4.19,4.19,0,0,0,.569-.535,2.238,2.238,0,0,0,.38-.4l.065-.067.255-.2a1.109,1.109,0,0,0,.19-1.474" transform="translate(-0.571 -0.436)" fill="#3fa3db"/>
      <path id="Path_27" data-name="Path 27" d="M42.951,22.555l-2.158-5.56v-.132a1.014,1.014,0,0,0-1.4-.469l-.316.133-.317.134a5.143,5.143,0,0,1-.824.468c-.256.135-.571.335-.825.469-.191.133-.446.267-.764.469l-.063.067a4.662,4.662,0,0,0-.761.47l-.063.067-.254.134v.067l-.188.134c-.067,0-.129,0-.129.067a1.047,1.047,0,0,0-.254,1.474l3.424,4.89h.066a.908.908,0,0,0,1.33.268l.256-.134V25.5a5.613,5.613,0,0,0,.633-.4,5.817,5.817,0,0,0,.572-.335c.19-.134.38-.2.571-.335s.381-.2.571-.334h.064l.317-.134a1.218,1.218,0,0,0,.507-1.409" transform="translate(-0.706 -0.334)" fill="#3fa3db"/>
      <path id="Path_28" data-name="Path 28" d="M49.964,20.422l-.7-5.962v-.067a1.02,1.02,0,0,0-1.207-.87l-.254.066h-.38l-.064.068a5.44,5.44,0,0,0-.888.2c-.381.067-.635.134-.888.2h-.063l-.128.068a5.068,5.068,0,0,0-.823.2,4.458,4.458,0,0,1-.89.266l-.19.135h-.126l-.317.133h-.063a1.14,1.14,0,0,0-.571,1.408L44.573,21.9a.948.948,0,0,0,1.267.6l.254-.067c.255-.068.445-.134.635-.2h.064c.19-.068.444-.134.635-.2l.126-.068h.063a1.767,1.767,0,0,0,.571-.133l.635-.135.254-.066a1.105,1.105,0,0,0,.888-1.207" transform="translate(-0.868 -0.277)" fill="#3fa3db"/>
      <path id="Path_29" data-name="Path 29" d="M80.034,38.845l5.327-2.412h.067a.969.969,0,0,1,1.267.6,5.394,5.394,0,0,1,.254.736,8.476,8.476,0,0,0,.316.938,4.011,4.011,0,0,0,.256.938,5.692,5.692,0,0,0,.254,1c.062.336.127.67.191.939l.063.335.064.335V42.4a1.049,1.049,0,0,1-.827,1.206l-5.645.872a1.07,1.07,0,0,1-1.207-.872l-.061-.335c-.066-.2-.126-.4-.192-.67a4.564,4.564,0,0,1-.127-.737c-.063-.2-.127-.4-.19-.67-.064-.2-.19-.47-.254-.738l-.064-.2a1.113,1.113,0,0,1,.507-1.408" transform="translate(-1.629 -0.746)" fill="#3fa3db"/>
      <path id="Path_30" data-name="Path 30" d="M76.541,32.11l4.506-3.751.063-.067a.981.981,0,0,1,1.4.267l.188.27.066.066.188.268h0a5.714,5.714,0,0,0,.508.8c.127.335.317.6.444.871.19.267.317.537.507.871a4.592,4.592,0,0,1,.381.8l.065.068.127.335.127.269c.061,0,.061.067.061.132a1.054,1.054,0,0,1-.507,1.408L79.4,37.134a1.028,1.028,0,0,1-1.331-.534l-.126-.268a6.832,6.832,0,0,1-.319-.671,2.368,2.368,0,0,1-.379-.6,2.551,2.551,0,0,0-.381-.669c-.127-.2-.19-.334-.317-.535l-.19-.337a1.015,1.015,0,0,1,.19-1.407" transform="translate(-1.561 -0.576)" fill="#3fa3db"/>
      <path id="Path_31" data-name="Path 31" d="M71.494,26.544l3.424-4.823.065-.067a.983.983,0,0,1,1.459-.134l.254.2v.067l.253.2a5.731,5.731,0,0,0,.635.6l.063.067a7.329,7.329,0,0,0,.7.671,3.15,3.15,0,0,0,.634.671v.067a6.007,6.007,0,0,1,.634.67l.064.067.19.267.254.267V25.4a1.038,1.038,0,0,1-.127,1.476l-4.441,3.684h-.061a.913.913,0,0,1-1.4-.067l-.254-.2a3.849,3.849,0,0,0-.444-.535c-.192-.2-.319-.335-.509-.536-.127-.133-.316-.335-.507-.535a3.044,3.044,0,0,1-.444-.4l-.063-.067-.254-.2a1.173,1.173,0,0,1-.126-1.474" transform="translate(-1.462 -0.436)" fill="#3fa3db"/>
      <path id="Path_32" data-name="Path 32" d="M65.277,22.555l2.094-5.56.063-.132a.947.947,0,0,1,1.333-.469l.317.133.317.134c.315.2.569.334.824.468.319.135.572.335.889.469.19.133.444.267.761.469l.063.067c.19.134.444.267.7.47l.065.067.318.134v.067l.188.134c.065,0,.065,0,.127.067a1.038,1.038,0,0,1,.192,1.474L70.1,25.436a.91.91,0,0,1-1.332.268l-.256-.134-.061-.068c-.192-.134-.38-.268-.572-.4a2.566,2.566,0,0,1-.571-.335,5.744,5.744,0,0,1-.634-.335c-.19-.133-.381-.2-.571-.334h-.066l-.253-.134a1.14,1.14,0,0,1-.507-1.409" transform="translate(-1.337 -0.334)" fill="#3fa3db"/>
      <path id="Path_33" data-name="Path 33" d="M58.284,20.422l.7-5.962v-.067a1.021,1.021,0,0,1,1.207-.87l.254.066h.316l.064.068a4.834,4.834,0,0,1,.953.2c.316.067.634.134.887.2h.063l.127.068a7.585,7.585,0,0,1,.825.2,3.938,3.938,0,0,0,.827.266l.252.135h.065l.316.133H65.2a1.031,1.031,0,0,1,.57,1.408L63.676,21.9a.97.97,0,0,1-1.268.6l-.254-.067H62.09c-.19-.068-.443-.134-.634-.2-.255-.068-.444-.134-.7-.2l-.064-.068h-.063A2.156,2.156,0,0,1,60,21.83l-.57-.135-.254-.066a1.057,1.057,0,0,1-.889-1.207" transform="translate(-1.195 -0.277)" fill="#3fa3db"/>
      <path id="Path_34" data-name="Path 34" d="M62.575,69.071a4.549,4.549,0,0,0,.178-1.712c-.048-.5-.234-.62-.71-.62H61.3a.685.685,0,0,0-.118.291c-.044.263.054.494.374.884a1,1,0,0,1,.214.944l-1.142.395L60.6,68.4c0-.11.025-.154.151-.192l.291-.094a1.361,1.361,0,0,1-.234-.916.906.906,0,0,1,.221-.455h-.044c-.649,0-.627-.466-.443-1a.339.339,0,0,1,.417-.263c-.012.2,0,.263.319.263h.612c.839,0,.975.427,1.145,1.306a9.841,9.841,0,0,1,.161,1.295c.029.516-.139.718-.618.73m-4.224-1.262c-.118.614-.281.751-.867.96a9.935,9.935,0,0,1-1.312.368c-.737-.988-.908-1.592-.852-1.932a.87.87,0,0,1,.249-.495l-.2-.049c-.358-.088-.261-.626,0-1.01a.347.347,0,0,1,.437-.148c-.035.181.024.247.153.285l.123.038c.268.082.277.231-.019,1.01l-.151-.038h-.012c-.162-.038-.268.055-.3.23-.038.231.147.62.64,1.147h.006a6.965,6.965,0,0,1,.549-1.465l-.151-.032c-.417-.1-.3-.6-.031-1.032a.307.307,0,0,1,.415-.159c-.014.215.045.258.154.285l.124.033c.244.066.259.236-.019,1.037l-.175-.055h0l-.062-.018c-.092,0-.122.05-.174.2a4.142,4.142,0,0,0-.194.85c-.023.2.018.259.18.22a5.931,5.931,0,0,0,1.193-.406A2.647,2.647,0,0,0,58.268,67c.032-.2-.059-.241-.28-.273-.45-.067-.48-.445-.269-.967.083-.209.2-.34.428-.3,0,.215.052.242.192.28.2.055.234.186.236.411a8.844,8.844,0,0,1-.223,1.657m-5.467,1-1.694.324.033-.736c.009-.215.079-.286.263-.318l1.248-.215a1.512,1.512,0,0,0,.4-.11,1.474,1.474,0,0,0-.043-.466c-.087-.362-.249-.494-.832-.543l-.47-.039c-.165.012-.238.2-.221.39l.4-.055c.3-.038.292.137.309.631l-.365.05c-.059-.11-.254-.138-.482.1l-.168-.032a1.086,1.086,0,0,1,.193-1.109c-.572-.077-.613-.423-.3-1.054a.328.328,0,0,1,.4-.175c-.011.2.029.253.291.274l.433.039c.789.071.964.46,1.091,1.53.1.824.112,1.4-.492,1.515m-4.694-3.249a.453.453,0,0,1,.76-.181c.28.308.03.835-.214,1.2-.144.218-.324.29-.4.258.248-.917.263-.911-.147-1.279m-1.073,0a.515.515,0,0,1,.84-.175c.225.313.027.824-.189,1.185-.141.236-.32.3-.39.269.243-.923.194-.917-.262-1.279m-1.575,3.49-.121.017a3.24,3.24,0,0,0-.309-1.164,1.44,1.44,0,0,1-1.251,1.362l-.068-.648c-.029-.279.068-.345.271-.4a1.314,1.314,0,0,0,.906-.7c-.041-.478-.353-.593-.827-.774-.5-.187-.6-.532-.223-1.109a.36.36,0,0,1,.5-.175c-.057.186-.043.268.26.4.354.154.414.285.454.834l.044.461a.67.67,0,0,0,.349.582.97.97,0,0,1,.017,1.316" transform="translate(-0.896 -1.338)" fill="#fff"/>
      <path id="Path_35" data-name="Path 35" d="M44.736,39.231a17.371,17.371,0,0,0-.363-2.381,8.308,8.308,0,0,0-.413-1.412,1.535,1.535,0,0,0-.63-.737,2.353,2.353,0,0,0-1.2-.253H40.963a1.672,1.672,0,0,1-.433-.04.229.229,0,0,1-.167-.136.918.918,0,0,1-.022-.309.956.956,0,0,0-.173-.02.636.636,0,0,0-.611.5,4.248,4.248,0,0,0-.169.666,1.1,1.1,0,0,0,.157.863,1.092,1.092,0,0,0,.9.308h.083a1.581,1.581,0,0,0-.4.837,1.847,1.847,0,0,0,.057.772,3.73,3.73,0,0,0,.43.913l-.552.172c-.166.046-.256.123-.271.231a.537.537,0,0,0-.008.121l.09,1.574,2.163-.726a1.473,1.473,0,0,0,.039-.2,1.838,1.838,0,0,0-.488-1.535,4.1,4.1,0,0,1-.638-.9,1.264,1.264,0,0,1-.116-.727,1.183,1.183,0,0,1,.213-.535h1.426a2.362,2.362,0,0,1,.75.1.788.788,0,0,1,.426.338,1.782,1.782,0,0,1,.207.706,7.459,7.459,0,0,1-.024,1.988c-.046.316-.126.7-.242,1.161a1.564,1.564,0,0,0,.809-.2.81.81,0,0,0,.33-.595,2.19,2.19,0,0,0,.008-.546m2.277,1.382a.832.832,0,0,0,.57-.212.857.857,0,0,0,.283-.525.569.569,0,0,0-.027-.272,2.086,2.086,0,0,0-.147-.3,2,2,0,0,1-.14-.308.521.521,0,0,1-.024-.257,1.157,1.157,0,0,1,.348-.546,4.039,4.039,0,0,0,.533-.641,1.806,1.806,0,0,0,.233-.711,4.31,4.31,0,0,0,.024-.929,4.4,4.4,0,0,0-.137-.969.6.6,0,0,0-.346-.389,2.346,2.346,0,0,0-.832-.106H46.006a1.569,1.569,0,0,1-.529-.061.4.4,0,0,1-.216-.212.686.686,0,0,1-.049-.3c0-.142,0-.286.013-.434.009-.067.017-.162.021-.282,0-.041,0-.133.015-.278a1.426,1.426,0,0,0-.03-.424.606.606,0,0,0-.263-.358,1.231,1.231,0,0,1-.253-.212,1.9,1.9,0,0,1-.118-.157.121.121,0,0,0-.1-.066.615.615,0,0,0-.358.222,1.144,1.144,0,0,0-.3.464c-.029.107-.047.177-.052.212a.607.607,0,0,0,.061.4.808.808,0,0,0,.364.3,1.731,1.731,0,0,1,.451.278.489.489,0,0,1,.122.328c0,.073-.01.245-.034.514q0,.091-.024.338t-.029.514a1.854,1.854,0,0,0,.035.459.675.675,0,0,0,.286.485,1.7,1.7,0,0,0,.734.111h1.581a.769.769,0,0,1,.488.126.548.548,0,0,1,.177.408,1.475,1.475,0,0,1-.011.353,1.055,1.055,0,0,1-.173.445,2.4,2.4,0,0,1-.447.474,5.075,5.075,0,0,0-.829.863,1.725,1.725,0,0,0-.306.741.8.8,0,0,0,.156.666.781.781,0,0,0,.629.252m4.065-.09a1.652,1.652,0,0,0,.215.01c.483,0,.753-.206.814-.615a1.911,1.911,0,0,0-.02-.575L51.914,38.2l-.328-2.128a5.393,5.393,0,0,0-.2-.869,1.02,1.02,0,0,0-.273-.428,1.5,1.5,0,0,0-.5-.257c-.152-.048-.242-.112-.272-.192a.724.724,0,0,1-.013-.334.813.813,0,0,0-.311-.071.646.646,0,0,0-.553.394,2.781,2.781,0,0,0-.338.9,1,1,0,0,0,.1.646.847.847,0,0,0,.557.384l.338.091a4.239,4.239,0,0,1,.589.181.705.705,0,0,1,.313.263,1.149,1.149,0,0,1,.156.524,11.455,11.455,0,0,1,.038,1.529q-.028.862-.128,1.691m3.408.09a.826.826,0,0,0,.568-.212.849.849,0,0,0,.284-.525.546.546,0,0,0-.027-.272,1.9,1.9,0,0,0-.147-.3,2.23,2.23,0,0,1-.141-.308A.545.545,0,0,1,55,38.737a1.16,1.16,0,0,1,.349-.546,4.165,4.165,0,0,0,.534-.641,1.855,1.855,0,0,0,.233-.711,5.79,5.79,0,0,0-.115-1.9.6.6,0,0,0-.346-.389,2.35,2.35,0,0,0-.832-.106H53.478a1.569,1.569,0,0,1-.529-.061.409.409,0,0,1-.217-.212.7.7,0,0,1-.048-.3c0-.142,0-.286.013-.434a2.674,2.674,0,0,0,.021-.282c0-.041,0-.133.015-.278a1.426,1.426,0,0,0-.031-.424.6.6,0,0,0-.263-.358,1.231,1.231,0,0,1-.253-.212,1.666,1.666,0,0,1-.117-.157.122.122,0,0,0-.1-.066.61.61,0,0,0-.357.222,1.137,1.137,0,0,0-.3.464c-.029.107-.046.177-.052.212a.613.613,0,0,0,.061.4.813.813,0,0,0,.364.3,1.731,1.731,0,0,1,.451.278.489.489,0,0,1,.122.328,5.11,5.11,0,0,1-.035.514c0,.061-.009.173-.023.338s-.024.337-.029.514a1.8,1.8,0,0,0,.036.459.671.671,0,0,0,.285.485,1.705,1.705,0,0,0,.734.111H54.8a.77.77,0,0,1,.489.126.548.548,0,0,1,.177.408,1.426,1.426,0,0,1-.011.353,1.08,1.08,0,0,1-.172.445,2.408,2.408,0,0,1-.448.474,5.075,5.075,0,0,0-.829.863,1.725,1.725,0,0,0-.306.741.8.8,0,0,0,.156.666.783.783,0,0,0,.63.252M58.621,38.2a10.456,10.456,0,0,0,.54-1.987A3.713,3.713,0,0,0,59.2,35.5a1.02,1.02,0,0,0-.271-.686,1.57,1.57,0,0,0-.753-.363l-.358-.091a.334.334,0,0,1-.265-.161.582.582,0,0,1-.024-.323.583.583,0,0,0-.142-.021.569.569,0,0,0-.337.117.8.8,0,0,0-.262.368,3.261,3.261,0,0,0-.226.767.9.9,0,0,0,.136.732,1.158,1.158,0,0,0,.667.348l.372.071a1.006,1.006,0,0,1,.467.2.78.78,0,0,1,.169.5,10.038,10.038,0,0,1-.01,1.23Zm8.994,1.654a1.294,1.294,0,0,0-.121-.65c-.1-.238-.263-.553-.482-.943-.1-.181-.2-.366-.3-.555a3.472,3.472,0,0,1-.2-.483.878.878,0,0,1-.038-.374.655.655,0,0,1,.232-.418.9.9,0,0,1,.458-.208,9.351,9.351,0,0,0-.136-1.185.677.677,0,0,0-.282-.464,1.419,1.419,0,0,0-.7-.126H61.28a1.5,1.5,0,0,1-.407-.04.236.236,0,0,1-.166-.141.834.834,0,0,1-.028-.3.962.962,0,0,0-.153-.009.616.616,0,0,0-.618.473,4.185,4.185,0,0,0-.186.707,1,1,0,0,0,.184.857,1.264,1.264,0,0,0,.96.293H66.3l.006.03a1.438,1.438,0,0,0-.384.857,1.983,1.983,0,0,0,.028.576q.057.313.191.887.145.555.212.949a2.229,2.229,0,0,1,.022.7.9.9,0,0,1-.082.283,2.106,2.106,0,0,0,1.007-.171.657.657,0,0,0,.316-.536M61.241,38.3a1.833,1.833,0,0,1-.142-.787.514.514,0,0,1,.1-.242l-.065-.12a1.4,1.4,0,0,0-.586.4,1.048,1.048,0,0,0-.27.65,2.691,2.691,0,0,0,.014.57c.024.185.063.412.112.682q.073.353.1.57a1.507,1.507,0,0,1,0,.388,1.1,1.1,0,0,1-.032.152,2.089,2.089,0,0,0,.948-.162.6.6,0,0,0,.34-.454,1.212,1.212,0,0,0-.019-.362,3.149,3.149,0,0,0-.126-.409c-.054-.145-.113-.284-.175-.418-.114-.269-.177-.42-.193-.454" transform="translate(-0.807 -0.649)" fill="#fff"/>
      <path id="Path_36" data-name="Path 36" d="M33.123,49.552l.371.029a10.728,10.728,0,0,0,.653-3.918c-.094-.877-.578-1.287-1.559-1.52l-.525-.131c-.441-.088-.489-.366-.455-.7a.855.855,0,0,0-1.039.673c-.64,1.8-.164,2.441.966,2.675l.545.1c.9.175,1.056.364,1.044,2.792" transform="translate(-0.621 -0.887)" fill="#fff"/>
      <path id="Path_37" data-name="Path 37" d="M35.7,47.072c.2.088.682-.088,1.028-.717.528-.965.976-2.323.294-3.158a1.411,1.411,0,0,0-2.292.468c1.328.965,1.464.951.97,3.407" transform="translate(-0.712 -0.877)" fill="#fff"/>
      <path id="Path_38" data-name="Path 38" d="M38.413,47.072c.215.088.7-.1,1.056-.687.6-.979,1.191-2.383.358-3.2a1.234,1.234,0,0,0-2.069.482c1.207.98,1.164.965.655,3.407" transform="translate(-0.774 -0.878)" fill="#fff"/>
      <path id="Path_39" data-name="Path 39" d="M49.846,49.405c-1.883-.058-1.312-1.594-1.3-3.45.012-1.038-.537-1.55-1.6-1.652l-3.329-.189c-.83-.089-.916-.44-.864-.805a.839.839,0,0,0-1.146.542c-.769,1.739-.456,2.675,1.337,2.865l3.09.175c1.2.132,1.5.132,1.564.994a2.858,2.858,0,0,0,.494,1.842l-5.214.716c-.564.1-.744.263-.725.833l.039,2.047,7.71-1.287c.04-.408-.03-2.134-.056-2.631" transform="translate(-0.845 -0.887)" fill="#fff"/>
      <path id="Path_40" data-name="Path 40" d="M59.217,45.241c-.046-.6-.176-.951-.732-1.1-.394-.1-.537-.175-.586-.746-.632-.117-.935.234-1.124.789-.481,1.389-.324,2.4.931,2.573.62.088.879.2.828.731A6.518,6.518,0,0,1,58.08,49.2a15.733,15.733,0,0,1-3.221,1.081c-.444.1-.564-.044-.541-.585a10.252,10.252,0,0,1,.371-2.267c.115-.408.189-.555.442-.541l.176.044h.015l.494.146c.614-2.134.538-2.588-.149-2.762l-.35-.088c-.309-.072-.476-.19-.48-.76a.82.82,0,0,0-1.12.424c-.65,1.14-.887,2.485.285,2.747l.425.088a16.974,16.974,0,0,0-1.234,3.9h-.016c-1.464-1.4-2.051-2.441-1.991-3.055.045-.468.324-.716.779-.614H52l.424.1c.668-2.076.616-2.47-.14-2.689l-.35-.1c-.364-.1-.542-.278-.48-.76a.931.931,0,0,0-1.176.394c-.654,1.024-.824,2.458.186,2.691l.556.131a2.112,2.112,0,0,0-.594,1.315c-.088.906.5,2.515,2.731,5.146a26.638,26.638,0,0,0,3.555-.979c1.581-.555,2.006-.921,2.211-2.558a22.017,22.017,0,0,0,.3-4.415" transform="translate(-1.02 -0.889)" fill="#fff"/>
      <path id="Path_41" data-name="Path 41" d="M65.466,53.019c1.421.015,1.838-.57,1.628-1.944a24.777,24.777,0,0,0-.706-3.186c-.725-2.53-1.056-3.743-3.212-3.743h-.659c-1.032,0-.987-.162-1.039-.7-.354-.058-.814-.1-1.1.7-.475,1.345-.32,2.66,1.477,2.66h1.841c1.287,0,1.78.321,1.989,2a11.766,11.766,0,0,1-.217,4.21" transform="translate(-1.233 -0.89)" fill="#fff"/>
      <path id="Path_42" data-name="Path 42" d="M77.882,51.982c.056-1.024-1.384-2.69-1.783-3.815a1.039,1.039,0,0,1,.876-1.448c-.262-2.222-.377-2.573-1.74-2.573H69.154c-.809,0-.9-.161-.905-.7a.885.885,0,0,0-1.084.672c-.505,1.652-.293,2.69,1.519,2.69h7.04l.011.044a1.86,1.86,0,0,0-.5,1.243c-.071,1.33,1.276,3.787.777,4.911,1.482,0,1.834-.379,1.867-1.023" transform="translate(-1.372 -0.89)" fill="#fff"/>
      <path id="Path_43" data-name="Path 43" d="M69.393,49.828c-.276-.7-.381-1.155-.139-1.491l-.1-.176a1.691,1.691,0,0,0-1.167,1.52c-.024,1.315.687,2.632.444,3.422,1.722,0,1.977-.614,1.771-1.418a15.124,15.124,0,0,0-.806-1.857" transform="translate(-1.394 -0.987)" fill="#fff"/>
      <path id="Path_44" data-name="Path 44" d="M39.421,62.6c.938.01,1.221-.391,1.1-1.333a17.321,17.321,0,0,0-.423-2.183c-.445-1.735-.645-2.566-2.07-2.566h-.435c-.683,0-.651-.111-.678-.481-.232-.039-.536-.07-.737.481-.333.923-.248,1.824.938,1.824h1.217c.85,0,1.17.22,1.286,1.372a8.4,8.4,0,0,1-.2,2.887" transform="translate(-0.738 -1.148)" fill="#fff"/>
      <path id="Path_45" data-name="Path 45" d="M45.681,59.561c-.312-2.374-.845-3.156-2.335-3.276a4.164,4.164,0,0,1-1,1.553l-.019-.011v-.01c.223-.832.1-.992-.4-1.253-.318-.16-.418-.32-.336-.611a.626.626,0,0,0-.8.231c-.61.851-.616,1.583.04,1.9l.458.23c.206.1.263.2.114.481-.488.891-.514,2.064-.031,3.807.84-.251,1.075-.661.847-1.263A3.268,3.268,0,0,1,42,58.519a2.483,2.483,0,0,1,2.371-.161,1.9,1.9,0,0,1,.789,1.834,4.618,4.618,0,0,1-1.851.532c-.333.06-.463.17-.467.542l0,1.362a5.423,5.423,0,0,0,1.8-.411c.852-.371,1.25-.991,1.035-2.655" transform="translate(-0.827 -1.146)" fill="#fff"/>
      <path id="Path_46" data-name="Path 46" d="M47.835,62.55c.655.061,1.112-.129.934-1.172-.215-1.232-.434-2.514-.567-3.246-.209-1.123-.362-1.333-.981-1.544-.324-.11-.311-.3-.286-.52a.571.571,0,0,0-.818.32c-.368.712-.564,1.643.355,1.914.823.241,1.269.23,1.362,1.051a17.161,17.161,0,0,1,0,3.2" transform="translate(-0.939 -1.148)" fill="#fff"/>
      <path id="Path_47" data-name="Path 47" d="M53.284,57.51c-.092-.751-.228-.942-.763-1.023-.466-.071-.489-.23-.489-.481-.322-.04-.567.03-.721.591-.266.952-.125,1.624.645,1.714l.518.06c.331.04.455.17.433.451a4.692,4.692,0,0,1-.129.872,14.575,14.575,0,0,1-1.48.833l-.015-.04a.879.879,0,0,0-.47-1.163c-.727-.4-.952-.592-.935-.721a.155.155,0,0,1,.184-.151l.666.141c.33-1.5.351-1.775-.436-1.984l-.345-.09c-.269-.071-.33-.23-.277-.521-.2-.06-.541-.121-.818.411-.379.721-.448,1.662.343,1.842l.347.08a.877.877,0,0,0-.181.722c.064.391.5.732,1.112,1.172.284.2.4.38.126.541-.18.1-.523.251-.647.3-.263.14-.265.331-.264.582l.053,1.442c1.434-.61,3.239-1.432,3.5-2.053a9.459,9.459,0,0,0,.047-3.527" transform="translate(-0.996 -1.147)" fill="#fff"/>
      <path id="Path_48" data-name="Path 48" d="M58.4,60.123c-1.241-.04-.844-1.093-.807-2.365a.994.994,0,0,0-1.038-1.133L55.313,56.5c-.547-.061-.6-.3-.56-.551a.557.557,0,0,0-.763.37c-.532,1.193-.339,1.835.843,1.964l1.083.121c.791.089.988.089,1.02.681a1.977,1.977,0,0,0,.3,1.263l-2.5.491c-.375.071-.5.18-.491.571l0,1.4,4.156-.882c.031-.28.009-1.462,0-1.8" transform="translate(-1.101 -1.146)" fill="#fff"/>
      <path id="Path_49" data-name="Path 49" d="M63.992,60.163A1.31,1.31,0,0,1,63.3,59.1l-.12-.842c-.123-1-.245-1.242-.9-1.523-.566-.24-.6-.391-.51-.731a.639.639,0,0,0-.9.32c-.635,1.052-.43,1.684.509,2.024.883.331,1.461.541,1.579,1.413a2.233,2.233,0,0,1-1.59,1.282c-.367.1-.54.22-.46.732l.181,1.182a2.474,2.474,0,0,0,2.164-2.485,6.158,6.158,0,0,1,.667,2.125l.221-.03a1.782,1.782,0,0,0-.151-2.4" transform="translate(-1.24 -1.147)" fill="#fff"/>
      <path id="Path_50" data-name="Path 50" d="M69.138,62.593a.8.8,0,0,0,.8-.732c.049-.42-.4-.721-.355-1.131a1.07,1.07,0,0,1,.319-.542,2.337,2.337,0,0,0,.693-2.265c-.115-1.252-.219-1.452-1.3-1.452H68.008c-.514,0-.633-.091-.721-.271a3.04,3.04,0,0,1-.042-1.013c.008-.42.062-.8-.3-1.051-.421-.291-.315-.441-.475-.431s-.505.36-.6.681a.662.662,0,0,0,.381.9c.421.212.539.311.564.6a12.066,12.066,0,0,0,0,1.813c.119.521.357.592.99.592h1.513c.415,0,.615.15.651.531a1.324,1.324,0,0,1-.57,1.263c-.719.672-.984,1.082-1.042,1.594a.748.748,0,0,0,.776.911" transform="translate(-1.349 -1.101)" fill="#fff"/>
    </g>
  </g>
  <g id="Group_55" data-name="Group 55" transform="translate(61.17 50.575)">
    <g id="Group_54" data-name="Group 54" clip-path="url(#clip-path-3)">
      <rect id="Rectangle_15" data-name="Rectangle 15" width="4.044" height="7.175" transform="translate(0 0)" fill="url(#linear-gradient)"/>
    </g>
  </g>
  <g id="Group_57" data-name="Group 57" transform="translate(0 0)">
    <g id="Group_56" data-name="Group 56" clip-path="url(#clip-path-2)">
      <path id="Path_52" data-name="Path 52" d="M82.042,52.109h5.951a.6.6,0,0,1,.63.53v6.955a.579.579,0,0,1-.63.529H82.042a.606.606,0,0,1-.631-.529V52.639a.632.632,0,0,1,.631-.53" transform="translate(-1.669 -1.068)" fill="#3fa3db"/>
      <path id="Path_53" data-name="Path 53" d="M82.042,61.846h5.951a.593.593,0,0,1,.63.508v6.677a.571.571,0,0,1-.63.507H82.042a.6.6,0,0,1-.631-.507V62.354a.625.625,0,0,1,.631-.508" transform="translate(-1.669 -1.268)" fill="#3fa3db"/>
      <path id="Path_54" data-name="Path 54" d="M87.762,50.5H82.053a.977.977,0,0,1-1.016-1l-.064-2.07v-.2a1.087,1.087,0,0,1,.889-1.138l5.645-.872h.127a1.013,1.013,0,0,1,1.079.938l.064.6v2.673A1.032,1.032,0,0,1,87.762,50.5" transform="translate(-1.66 -0.927)" fill="#3fa3db"/>
      <path id="Path_55" data-name="Path 55" d="M26.554,52.109H20.6a.6.6,0,0,0-.631.53v6.955a.58.58,0,0,0,.631.529h5.951a.6.6,0,0,0,.63-.529V52.639a.631.631,0,0,0-.63-.53" transform="translate(-0.409 -1.068)" fill="#3fa3db"/>
      <path id="Path_56" data-name="Path 56" d="M26.554,61.846H20.6a.594.594,0,0,0-.631.508v6.677a.572.572,0,0,0,.631.507h5.951a.6.6,0,0,0,.63-.507V62.354a.624.624,0,0,0-.63-.508" transform="translate(-0.409 -1.268)" fill="#3fa3db"/>
      <path id="Path_57" data-name="Path 57" d="M20.823,50.5H26.53a.977.977,0,0,0,1.017-1l.063-2.07v-.2a1.086,1.086,0,0,0-.888-1.138l-5.645-.872h-.127a1.013,1.013,0,0,0-1.079.938l-.064.6v2.673A1.032,1.032,0,0,0,20.823,50.5" transform="translate(-0.406 -0.927)" fill="#3fa3db"/>
    </g>
  </g>
</svg>
