<svg xmlns="http://www.w3.org/2000/svg" xmlns:xlink="http://www.w3.org/1999/xlink" width="82.356" height="75.071" viewBox="0 0 82.356 75.071">
  <defs>
    <clipPath id="clip-path">
      <rect id="Rectangle_268" data-name="Rectangle 268" width="82.356" height="75.071" fill="#cde1e8"/>
    </clipPath>
  </defs>
  <g id="Group_554" data-name="Group 554" transform="translate(0 0)">
    <g id="Group_553" data-name="Group 553" transform="translate(0 0)" clip-path="url(#clip-path)">
      <path id="Path_232" data-name="Path 232" d="M0,35.82l.342-.708c2.45,1.355,3.622,3.752,5.037,6.057.318-2.139.61-4.1.906-6.087l-.807.562A28.875,28.875,0,0,0,7.812,25.564c-2.175,2.35-2.735,5.106-3.594,8.051-.187-3.038-.28-5.807-1.692-8.311a26.288,26.288,0,0,0-.181,9.211,16.158,16.158,0,0,1-1.011-12.71c.519-1.652.628-1.75,1.317-1.884.56-5.087,3.4-10.068,7.04-12.225.606,2.714-.293,5.181-1,7.708,3.639-2.812,6.781-5.966,8.139-10.5-2.821,1.74-4.556,4.44-6.423,7.244C11.355,7.042,16.153,1.171,20.11.214c-.648,5.443-3.9,9.216-7.778,12.674l3.082-1.14A16.475,16.475,0,0,1,10.087,20.4,1.549,1.549,0,0,0,9.48,22.07,16.113,16.113,0,0,1,7.689,32.608a1.635,1.635,0,0,0,0,1.362,17.321,17.321,0,0,1,2.4,10.541,1.573,1.573,0,0,0,.771,1.639,17.554,17.554,0,0,1,6.786,8.433,2.106,2.106,0,0,0,1.095,1.03A19.81,19.81,0,0,1,29.04,64.5a6.024,6.024,0,0,1,.638,1.808,44.012,44.012,0,0,0-9.422-7.34c1.471,3.5,4.13,5.6,6.607,7.943-1.009-.39-2-.815-3.029-1.158a27.435,27.435,0,0,0-3.347-.963,14.968,14.968,0,0,0-3.319-.212,30.708,30.708,0,0,0,10.912,5.09c-6.375.56-14.4-3.086-17.049-7.647,3.276-.835,6.352.066,9.718,1.04-.656-.763-1.1-1.276-1.539-1.789A12.481,12.481,0,0,1,15.937,55.2a6.045,6.045,0,0,0-1.65-2.938,18.091,18.091,0,0,0-2.536-2.62c.39,3.128,2.294,5.479,3.936,7.985-2.5-1.7-4.912-3.491-7.992-4.019A27.486,27.486,0,0,0,15.926,60.2C11.645,59.934,4.818,55.46,2.959,50.158c2.994-.073,5.445,1.346,8.115,2.866a8.776,8.776,0,0,0-.382-.932,16.443,16.443,0,0,1-2.148-6.583c-.132-1.2.044-2.441-.1-3.641a24.487,24.487,0,0,0-.794-3.134c-.888,1.211-1.049,5.016-.508,8.434-.71-1.4-1.251-2.654-1.957-3.806a17.9,17.9,0,0,0-2.6-3.247c.4,3.231,1.792,6.047,3.165,8.956a6.659,6.659,0,0,1-.636-.5,16.5,16.5,0,0,1-4.9-9.933A4.978,4.978,0,0,0,0,37.877V35.82M11.69,15.614c-2.842.913-4.7,3.109-6.727,5.1,1.167-2.576,2.46-5.085,2.5-8.044-.2.049-.292.043-.321.082A25.926,25.926,0,0,0,3.08,20.31a1.737,1.737,0,0,0,.109.964c.433,1.4.909,2.784,1.338,4.184.16.521.235,1.069.366,1.693l2.733-4.935L5.388,23.34c-.05-.078-.1-.157-.151-.236a25.229,25.229,0,0,0,6.452-7.491" transform="translate(0 -0.03)" fill="#cde1e8"/>
      <path id="Path_233" data-name="Path 233" d="M44.94,85.363c-.37-.3-.869-.531-1.081-.918-.372-.681-.953-1.577-.768-2.172A55.662,55.662,0,0,1,45.767,75.3c.843-1.81,1.873-2.1,3.787-1.456-.088.273-.159.556-.266.824q-1.917,4.817-3.838,9.633a10.937,10.937,0,0,0-.3,1.06Z" transform="translate(-6.026 -10.292)" fill="#cde1e8"/>
      <path id="Path_234" data-name="Path 234" d="M52.406,85.389c-.366-.352-.873-.641-1.067-1.07a3.323,3.323,0,0,1-.488-2.083,63.727,63.727,0,0,1,2.976-7.061c.786-1.56,1.875-1.764,3.684-1.085-.224.552-.439,1.11-.673,1.66q-1.829,4.293-3.663,8.585c-.144.341-.239.7-.357,1.054Z" transform="translate(-7.109 -10.319)" fill="#cde1e8"/>
      <path id="Path_235" data-name="Path 235" d="M17.647,47.366c1.058-1.328,2.011-2.524,2.965-3.72,2.672-3.35,5.327-6.713,8.033-10.035a1.015,1.015,0,0,0-.009-1.557c-3.5-4.311-6.965-8.652-10.438-12.984-.187-.233-.359-.476-.685-.906,2.406.295,4.6.561,6.794.835,3.911.489,7.823.968,11.73,1.486.677.089.813-.336,1.005-.775q2.91-6.624,5.82-13.249c.339-.771.7-1.533,1.121-2.467.244.5.417.82.564,1.153,2.11,4.795,4.228,9.587,6.311,14.394a1.2,1.2,0,0,0,1.519.889C57.981,19.671,63.6,19,69.209,18.3a11.666,11.666,0,0,1,1.2-.005L58.76,32.835,70.378,47.411c-1.583-.174-2.954-.31-4.321-.476-4.657-.565-9.314-1.125-13.967-1.726-.713-.092-.789.38-.974.8q-3.243,7.328-6.477,14.658c-.178.4-.364.8-.619,1.364-.22-.432-.391-.734-.531-1.048-2.2-4.974-4.409-9.945-6.578-14.933a1.063,1.063,0,0,0-1.363-.772c-5.7.74-11.42,1.4-17.131,2.087-.189.022-.384,0-.769,0m35.1-14.548c0-1.369.052-2.742-.031-4.107a1.7,1.7,0,0,0-.663-1.195q-3.646-2.209-7.383-4.265a1.544,1.544,0,0,0-1.276,0q-3.731,2.062-7.382,4.265a1.658,1.658,0,0,0-.68,1.186c-.061,2.67-.012,5.341-.046,8.01a1.3,1.3,0,0,0,.767,1.293c2.467,1.41,4.9,2.873,7.382,4.263a1.425,1.425,0,0,0,1.185,0c2.393-1.33,4.736-2.754,7.131-4.082a1.754,1.754,0,0,0,1.015-1.884c-.079-1.158-.02-2.326-.02-3.491M38.807,24.281c1.563-.817,3-1.6,4.469-2.32a1.287,1.287,0,0,0,.814-1.352c-.032-4.24-.015-8.481-.019-12.721,0-.244-.052-.489-.107-.957a4.651,4.651,0,0,0-.291.437q-3.061,7-6.1,14a1.129,1.129,0,0,0,.036.844c.334.667.745,1.3,1.2,2.066m.031,17.16a9.313,9.313,0,0,1-.609.941,2.554,2.554,0,0,0-.237,3.068c1.881,4.063,3.622,8.19,5.42,12.291.126.289.288.562.467.907.113-.175.176-.227.176-.28.009-4.549.021-9.1-.005-13.646a1.088,1.088,0,0,0-.489-.782c-1.521-.845-3.073-1.635-4.722-2.5M66.914,20.127l-.052-.261c-.367.031-.735.052-1.1.1-4.358.515-8.705,1.171-13.077,1.489-2.012.146-2.694,1.344-3.5,2.808,1.489.863,2.924,1.662,4.32,2.524a1.278,1.278,0,0,0,1.5.012c2.8-1.6,5.62-3.152,8.434-4.722q1.74-.971,3.48-1.945M49.129,41.485a13.325,13.325,0,0,1,.838,1.277,2.442,2.442,0,0,0,2.166,1.407c3.742.378,7.475.847,11.212,1.281,1.175.137,2.35.27,3.733.428-.242-.261-.31-.384-.415-.442q-5.956-3.331-11.925-6.64a.949.949,0,0,0-.746-.108c-1.607.891-3.191,1.827-4.864,2.8M20.946,20.057l-.118.127c.194.255.38.516.583.764,2.58,3.149,5.248,6.233,7.706,9.475a3.638,3.638,0,0,0,3.8,1.662.414.414,0,0,1,.1,0c.6.065.766-.243.753-.793-.025-1.025-.056-2.055.01-3.077A1.5,1.5,0,0,0,32.87,26.6c-3.729-2.021-7.426-4.1-11.137-6.16-.255-.142-.525-.259-.787-.387m-.112,25.495c.138.031.22.078.263.054,4.075-2.254,8.151-4.507,12.208-6.793A1.121,1.121,0,0,0,33.75,38c.048-1.231.03-2.465.01-3.7a.894.894,0,0,0-.219-.626c-.538-.411-3.081.016-3.526.561Q25.621,39.6,21.233,44.977c-.14.173-.255.366-.4.575" transform="translate(-2.451 -0.559)" fill="#cde1e8"/>
      <path id="Path_236" data-name="Path 236" d="M78.882,14.147c.343.222.708.418,1.026.671.769.61,1.516,1.245,2.373,1.817-.707-2.513-1.584-4.965-1.061-7.794.4.274.742.464,1.035.71a17.1,17.1,0,0,1,5.934,10.73c.064.4-.089.921.607.958.114.006.237.313.314.5a16.641,16.641,0,0,1-.341,13.938.4.4,0,0,1-.227.23,30.78,30.78,0,0,0,.041-9.437c-1.049.986-1.573,3.347-1.936,7.918-.251-.831-.477-1.67-.759-2.49a22.565,22.565,0,0,0-1-2.578,11.463,11.463,0,0,0-1.539-2.289c-.2,3.4.875,6.5,2.114,9.779-.261-.164-.375-.229-.48-.305s-.2-.167-.335-.282c.306,2.031.6,4,.931,6.181C87,40,88.241,37.612,90.7,36.256c1.1,4.425-1.964,11.6-5.337,13.883.974-2.516,2.043-5.268,3.1-8.023a6.685,6.685,0,0,0,.167-1.005c-2.384,1.884-3.358,4.364-4.616,6.7.212-2.639.353-5.255-.611-7.789-.6,1.988-1.293,3.9-1.044,6.081a10.067,10.067,0,0,1-.675,3.909,44.8,44.8,0,0,1-1.743,4.151c2.578-1.4,5.02-2.85,7.963-2.817-1.006,4.273-7.848,9.72-12.885,10.062a27.6,27.6,0,0,0,8.244-6.583c-3.076.511-5.492,2.315-8,4.016,1.644-2.508,3.545-4.866,4.056-7.918l-.237-.218c-.551.62-1.109,1.235-1.652,1.863-.628.725-1.28,1.435-1.849,2.205-.3.406-1.054.755-.406,1.482.079.089-.126.435-.208.659a18.724,18.724,0,0,1-3.832,6.275,4.035,4.035,0,0,0-.669.916c3.106-.829,6.173-1.677,9.408-.907-2.006,3.719-9.692,8.405-16.981,7.683a34.369,34.369,0,0,0,11.161-5.1c-3.772-.286-6.852,1.114-10.025,2.317,2.506-2.274,5.171-4.412,6.5-7.694a34.974,34.974,0,0,0-9.074,7.129l-.243-.156a14.778,14.778,0,0,1,.681-1.619,19.368,19.368,0,0,1,10.289-8.875,1.888,1.888,0,0,0,1.236-1.215,16.6,16.6,0,0,1,6.471-8.156,1.9,1.9,0,0,0,.984-1.945,17.228,17.228,0,0,1,2.473-10.515,1.3,1.3,0,0,0,.009-1.095,16.047,16.047,0,0,1-1.87-10.7,1.544,1.544,0,0,0-.621-1.661,16.14,16.14,0,0,1-5.118-7.9,2.009,2.009,0,0,1-.079-.4.943.943,0,0,1,.059-.253L78.89,14.15l-.009,0m4.455,9.278,2.572,4.649c.642-1.883,1.329-3.831,1.959-5.8a1.517,1.517,0,0,0-.091-1.057c-1.23-2.357-2.5-4.693-3.771-7.029-.081-.149-.27-.238-.552-.477.114,3.1,1.351,5.641,2.725,8.46-2.221-2.239-4.068-4.459-7.147-5.542a27.761,27.761,0,0,0,6.723,7.712c-.056.073-.113.145-.169.218l-2.247-1.136" transform="translate(-8.567 -1.238)" fill="#cde1e8"/>
      <path id="Path_237" data-name="Path 237" d="M80.451,12.909l.009,0c-1.367-1.34-2.822-2.6-4.083-4.037A15.257,15.257,0,0,1,72.417,0a17.621,17.621,0,0,1,9.676,11.918C80.262,9.34,78.548,6.663,75.641,4.9a6.327,6.327,0,0,0,.522,1.623c1.2,1.821,2.482,3.588,3.721,5.383.218.316.378.669.566,1.005" transform="translate(-10.136 0)" fill="#cde1e8"/>
      <path id="Path_238" data-name="Path 238" d="M37.331,85.071c-1.8-.833-2.286-2.009-1.59-3.688.916-2.209,1.831-4.42,2.768-6.621a2.378,2.378,0,0,1,3.562-1.1q-2.366,5.692-4.74,11.406" transform="translate(-4.96 -10.257)" fill="#cde1e8"/>
      <path id="Path_239" data-name="Path 239" d="M40.043,36.012c0-1.029-.046-2.06.026-3.083a1.373,1.373,0,0,1,.55-.951q2.946-1.784,5.967-3.444a1.454,1.454,0,0,1,1.195,0q2.979,1.625,5.878,3.393a1.46,1.46,0,0,1,.61,1.031q.084,3.185,0,6.374a1.466,1.466,0,0,1-.616,1.025c-1.895,1.171-3.814,2.3-5.768,3.374a1.664,1.664,0,0,1-1.367.022c-1.985-1.084-3.933-2.237-5.857-3.426a1.491,1.491,0,0,1-.589-1.028c-.077-1.091-.028-2.191-.028-3.288m2.9,4.252a12.053,12.053,0,0,1,1.545.011c.85.12,1.225-.242,1.429-1.045.313-1.223.733-2.419,1.113-3.624.394-1.25.61-1.368,1.956-1.072v3.289c-1.659.126-2.049.63-1.917,2.358h4.544c0-2.609.007-5.138-.015-7.666a.705.705,0,0,0-.323-.54,4.677,4.677,0,0,0-4.959,1.545c-.646-1.742-1.005-1.908-3.255-1.449-.124.7-.253,1.421-.379,2.135A1.83,1.83,0,0,1,44.1,36.687c-.352,1.137-.731,2.265-1.156,3.578" transform="translate(-5.602 -3.976)" fill="#cde1e8"/>
    </g>
  </g>
</svg>
