<svg xmlns="http://www.w3.org/2000/svg" xmlns:xlink="http://www.w3.org/1999/xlink" width="22.427" height="42.119" viewBox="0 0 22.427 42.119">
  <defs>
    <clipPath id="clip-path">
      <rect id="Rectangle_7" data-name="Rectangle 7" width="22.427" height="42.119" fill="none"/>
    </clipPath>
  </defs>
  <g id="Group_8" data-name="Group 8" clip-path="url(#clip-path)">
    <path id="Path_6" data-name="Path 6" d="M7.117,14.749.807,19.586a2.06,2.06,0,0,0,2.5,3.273l4.464-3.418ZM9.46,0a3.968,3.968,0,1,0,3.967,3.967A3.969,3.969,0,0,0,9.46,0m-.1,23.027A1.728,1.728,0,0,1,8.636,24.9L5.462,27.643a3.839,3.839,0,0,0-1.274,2.518l-.694,9.293a2.479,2.479,0,0,0,4.944.366l.656-8.759,5.18-4.448a4.728,4.728,0,0,0,1.686-4.86l-.915-6.478,1.335.7,2.015,6.569a2.063,2.063,0,1,0,3.944-1.213l-2.075-6.745a3.769,3.769,0,0,0-1.793-2.167L14.442,10.3a8.215,8.215,0,0,0-3.06-1.221,3.331,3.331,0,0,0-3.449,3.8ZM18.4,42a2.489,2.489,0,0,1-3.12-1.6L11.939,30.024l3.029-2.6a7.106,7.106,0,0,0,1.007-1.037L20,38.882A2.485,2.485,0,0,1,18.4,42" transform="translate(0)" fill="#141515" fill-rule="evenodd"/>
  </g>
</svg>
