<svg id="Group_5" data-name="Group 5" xmlns="http://www.w3.org/2000/svg" xmlns:xlink="http://www.w3.org/1999/xlink" width="64.361" height="68.05" viewBox="0 0 64.361 68.05">
  <defs>
    <clipPath id="clip-path">
      <rect id="Rectangle_5" data-name="Rectangle 5" width="64.361" height="68.05" fill="#fff"/>
    </clipPath>
  </defs>
  <g id="Group_5-2" data-name="Group 5" clip-path="url(#clip-path)">
    <path id="Path_3" data-name="Path 3" d="M148.212,10.136h21.411a2.325,2.325,0,0,0,2.325-2.325V2.326A2.325,2.325,0,0,0,169.623,0H148.212a2.325,2.325,0,0,0-2.325,2.325V7.811a2.325,2.325,0,0,0,2.325,2.325" transform="translate(-126.691 -0.001)" fill="#fff"/>
    <path id="Path_4" data-name="Path 4" d="M62.189,46.611h-4.18V24.978a11.509,11.509,0,0,0-6.051-10.135A1.613,1.613,0,0,0,49.6,16.281V42.77c0,10.5-7.963,14.84-17.374,14.84S14.852,53.266,14.852,42.77V16.281A1.613,1.613,0,0,0,12.5,14.843,11.509,11.509,0,0,0,6.445,24.978V46.611H2.172A2.172,2.172,0,0,0,0,48.783V55.1a5.478,5.478,0,0,0,5.478,5.477h.968v4.8a8.233,8.233,0,0,0,6.235,7.986v4.915a2.5,2.5,0,0,0,2.5,2.5h6.585a2.5,2.5,0,0,0,2.5-2.5V73.607H41.638v4.159a2.389,2.389,0,0,0,2.389,2.389h6.8a2.389,2.389,0,0,0,2.389-2.389V72.852a8.23,8.23,0,0,0,4.787-7.475v-4.8h.874A5.477,5.477,0,0,0,64.36,55.1V48.783a2.172,2.172,0,0,0-2.172-2.172m-38.507,22H14.991a2.1,2.1,0,0,1-2.1-2.1V64.264a2.1,2.1,0,0,1,2.1-2.1h6.446a4.346,4.346,0,0,1,4.345,4.345,2.1,2.1,0,0,1-2.1,2.1m27.881-2.1a2.1,2.1,0,0,1-2.1,2.1H40.772a2.1,2.1,0,0,1-2.1-2.1,4.346,4.346,0,0,1,4.345-4.345h6.446a2.1,2.1,0,0,1,2.1,2.1Z" transform="translate(0 -12.726)" fill="#fff"/>
  </g>
</svg>
