<svg id="Group_605" data-name="Group 605" xmlns="http://www.w3.org/2000/svg" xmlns:xlink="http://www.w3.org/1999/xlink" width="26.927" height="22.762" viewBox="0 0 26.927 22.762">
  <defs>
    <clipPath id="clip-path">
      <rect id="Rectangle_6" data-name="Rectangle 6" width="26.927" height="22.762" fill="#fff"/>
    </clipPath>
  </defs>
  <g id="Group_6" data-name="Group 6" clip-path="url(#clip-path)">
    <path id="Path_5" data-name="Path 5" d="M24.15,8.67l.257-.085h1.067a.822.822,0,0,0,.77-.865V6.8a.822.822,0,0,0-.77-.865H23.863l-.92-3.5q-.008-.032-.018-.063A3.639,3.639,0,0,0,19.343,0H7.584A3.639,3.639,0,0,0,4,2.372c-.007.021-.013.042-.018.063l-.92,3.5H1.506a.822.822,0,0,0-.77.865V7.72a.822.822,0,0,0,.77.865H2.519l.257.085A5.562,5.562,0,0,0,0,13.613V16.28a2.494,2.494,0,0,0,1.963,2.544v2.84a1.042,1.042,0,0,0,.977,1.1H5.631a1.042,1.042,0,0,0,.977-1.1V18.851H20.373v2.814a1.042,1.042,0,0,0,.977,1.1h2.691a1.042,1.042,0,0,0,.977-1.1v-2.85a2.5,2.5,0,0,0,1.909-2.535V13.613A5.562,5.562,0,0,0,24.15,8.67M5.974,3.138a1.731,1.731,0,0,1,1.61-.8H19.343a1.731,1.731,0,0,1,1.61.8l1.315,5c-.073,0-.146-.006-.22-.006H4.878c-.074,0-.147,0-.22.006ZM7.911,14.145a.775.775,0,0,1-.727.816H3.412a.775.775,0,0,1-.727-.816v-1.3a.775.775,0,0,1,.727-.816H7.184a.775.775,0,0,1,.727.816Zm8.277.743h-5.45a.7.7,0,0,1,0-1.383h5.45a.7.7,0,0,1,0,1.383m2.827-.743v-1.3a.775.775,0,0,1,.727-.816h3.772a.775.775,0,0,1,.727.816v1.3a.775.775,0,0,1-.727.816H19.742a.775.775,0,0,1-.727-.816" fill="#fff"/>
  </g>
</svg>
