<svg id="Group_594" data-name="Group 594" xmlns="http://www.w3.org/2000/svg" xmlns:xlink="http://www.w3.org/1999/xlink" width="38.41" height="72.135" viewBox="0 0 38.41 72.135">
  <defs>
    <clipPath id="clip-path">
      <rect id="Rectangle_7" data-name="Rectangle 7" width="38.41" height="72.135" fill="#fff"/>
    </clipPath>
  </defs>
  <g id="Group_8" data-name="Group 8" clip-path="url(#clip-path)">
    <path id="Path_6" data-name="Path 6" d="M12.189,25.259,1.382,33.544A3.528,3.528,0,0,0,5.668,39.15L13.313,33.3ZM16.2,0A6.8,6.8,0,1,0,23,6.795,6.8,6.8,0,0,0,16.2,0m-.17,39.438a2.959,2.959,0,0,1-1.241,3.2l-5.436,4.7a6.574,6.574,0,0,0-2.182,4.313L5.982,67.572a4.246,4.246,0,0,0,8.468.627l1.124-15,8.872-7.618c2.705-2.326,3.4-4.665,2.888-8.324L25.766,26.161l2.286,1.2L31.5,38.614a3.534,3.534,0,1,0,6.755-2.078L34.7,24.985a6.456,6.456,0,0,0-3.071-3.711l-6.9-3.633c-1.647-.875-3.372-1.947-5.241-2.091a5.706,5.706,0,0,0-5.907,6.507Zm15.485,32.5a4.263,4.263,0,0,1-5.344-2.744L20.448,51.42l5.188-4.456a12.171,12.171,0,0,0,1.725-1.777l6.887,21.4a4.255,4.255,0,0,1-2.732,5.344" transform="translate(0)" fill="#fff" fill-rule="evenodd"/>
  </g>
</svg>
